<svg id="Layer_1" data-name="Layer 1" xmlns="http://www.w3.org/2000/svg" viewBox="0 0 1793.04 791.36"><defs><style>.cls-1,.cls-4,.cls-5{fill:#fff;}.cls-1,.cls-3,.cls-5{stroke:#000;stroke-miterlimit:10;}.cls-1,.cls-5{stroke-width:16px;}.cls-2{fill:#ed1c24;}.cls-3{font-size:421.12px;fill:#ff1d25;stroke-width:12px;}.cls-3,.cls-5{font-family:JSChaimongkol, JS Chaimongkol;}.cls-5{font-size:579.19px;}</style></defs><circle class="cls-1" cx="302.74" cy="302.74" r="294.74"/><path class="cls-2" d="M541.86,495.83c1.32-61.95-45.26-113.18-104-114.4-31.61-.69-60.28,13.29-80.25,36-19-23.51-47.08-38.66-78.66-39.31-58.73-1.22-107.38,48-108.69,110A116.93,116.93,0,0,0,179,535c27.82,106.46,170.21,169.65,170.21,169.65,106.37-31.22,155.3-107.84,174.33-148.23A115.79,115.79,0,0,0,541.86,495.83Z" transform="translate(-52.96 -219.87)"/><text class="cls-3" transform="translate(1238.55 515.99) scale(1.2 1)">p<tspan class="cls-4" x="162.13" y="0">os</tspan></text><text class="cls-5" transform="translate(632.76 517.52) scale(1.3 1)">KY</text></svg>