<svg xmlns="http://www.w3.org/2000/svg" viewBox="0 0 155.45 74.72"><defs><style>.cls-1{isolation:isolate;}.cls-2{fill:#8f95a9;}.cls-3{fill:#f2f2f2;}.cls-4{fill:#b3b3b3;opacity:0.63;}.cls-10,.cls-4{mix-blend-mode:multiply;}.cls-5{fill:#be894a;}.cls-6{fill:#9fdbe9;}.cls-7{fill:#4d5373;}.cls-8{fill:#e8e8e8;}.cls-9{fill:#ff8000;}.cls-10{fill:#5f668e;opacity:0.45;}.cls-11{fill:#4a5c8e;}.cls-12{fill:#ccc;}.cls-13{fill:#a7c9d1;opacity:0.53;}</style></defs><g class="cls-1"><g id="Layer_2" data-name="Layer 2"><g id="Layer_1-2" data-name="Layer 1"><rect class="cls-2" y="38.06" width="155.45" height="36.65"/><rect class="cls-3" y="53.78" width="18.67" height="4.19"/><rect class="cls-3" x="24.28" y="53.78" width="33.66" height="4.18"/><rect class="cls-3" x="63.55" y="53.78" width="33.66" height="4.18"/><rect class="cls-3" x="102.82" y="53.78" width="33.66" height="4.18"/><rect class="cls-3" x="142.09" y="53.78" width="13.36" height="4.19"/><path class="cls-4" d="M146.88,50.25c0,3.13-18.19,5.67-40.62,5.67a204,204,0,0,1-31.05-2,203.93,203.93,0,0,1-31,2c-22.42,0-40.6-2.54-40.6-5.67s18.18-5.67,40.6-5.67a203.93,203.93,0,0,1,31.05,2,204,204,0,0,1,31.05-2C128.69,44.58,146.88,47.12,146.88,50.25Z"/><path class="cls-5" d="M33.19,4.64,30.21,17l-3.31-.79L31,6.66C31.37,5.73,32.09,4.69,33.19,4.64Z"/><rect class="cls-5" x="34.04" y="5.92" width="12.75" height="13.89" transform="translate(18.4 49.12) rotate(-76.4)"/><rect class="cls-5" x="49.56" y="9.61" width="12.75" height="14.01" transform="translate(26.63 67.08) rotate(-76.41)"/><path class="cls-6" d="M33.19,4.64,30.21,17l-3.31-.79L31,6.66C31.37,5.73,32.09,4.69,33.19,4.64Z"/><rect class="cls-6" x="34.04" y="5.92" width="12.75" height="13.89" transform="translate(18.4 49.12) rotate(-76.4)"/><rect class="cls-6" x="49.56" y="9.61" width="12.75" height="14.01" transform="translate(26.63 67.08) rotate(-76.41)"/><path class="cls-7" d="M22.39,46.12a8.05,8.05,0,1,1,9.71-5.93A8,8,0,0,1,22.39,46.12Z"/><path class="cls-7" d="M67.1,46.74c-.19,4-4,7-8.53,6.77s-8-3.61-7.84-7.56,4-7,8.53-6.77S67.29,42.79,67.1,46.74Z"/><path class="cls-8" d="M28.54,39.33A4.38,4.38,0,1,1,25.31,34,4.38,4.38,0,0,1,28.54,39.33Z"/><path class="cls-8" d="M59.1,42.45a4.22,4.22,0,0,1,4.27,4.11,4.5,4.5,0,0,1-8.91-.43A4.22,4.22,0,0,1,59.1,42.45Z"/><path class="cls-9" d="M145.71,30l-3-13a4.39,4.39,0,0,0-5.27-3.28l-7,1.63-4.27-9.83c-.86-2-2.3-4-5.27-3.28L88.94,9.7c-2.35.55-4.12,7.12-4,9.73l1.41,6.2-1.94.46L83.28,26l-1.46-.41-3,.06-1.43,2.07-.86,1.38-.33.77-.25.39.8,19.13,5.52.71L82.72,49l.73-1.87,1.44,1.61.59.66,2.36-1.07a12.08,12.08,0,0,1-.43-2.47c0-4.29,2.22-7.78,6.53-9,7.86-2.21,10.23,2,11.42,7.11l15.51-3.61A9.51,9.51,0,1,1,139.4,36l3-.7A4.4,4.4,0,0,0,145.71,30ZM88.5,25.13,86.61,18c0-1,1.37-5.42,2.33-6l2.87,12.34Zm5.27-1.22L90.88,11.5l13.53-3.15,2.89,12.41Zm15.49-3.6L106.37,7.9,120,4.72l2.89,12.4Zm15.61-3.63L122,4.32c.68,0,1.36.41,2.1,2.11l4.1,9.47Z"/><rect class="cls-6" x="92.15" y="9.76" width="13.89" height="12.74" transform="translate(-1.08 22.87) rotate(-13.09)"/><rect class="cls-6" x="107.64" y="6.14" width="14.01" height="12.75" transform="translate(0.15 26.3) rotate(-13.09)"/><path class="cls-6" d="M128.21,15.9l-3.34.78L122,4.32c.69,0,1.36.41,2.11,2.11Z"/><path class="cls-7" d="M96.19,52.73c-4.43.15-8.15-3-8.29-7.06s3.35-7.45,7.79-7.6,8.16,3,8.3,7S100.63,52.57,96.19,52.73Z"/><path class="cls-7" d="M132,46a8,8,0,1,1,6-9.66A8,8,0,0,1,132,46Z"/><path class="cls-8" d="M100.32,45.25a4.4,4.4,0,1,1-4.52-3.84A4.19,4.19,0,0,1,100.32,45.25Z"/><path class="cls-8" d="M134.46,37.17a4.38,4.38,0,1,1-5.25-3.27A4.38,4.38,0,0,1,134.46,37.17Z"/><polygon class="cls-10" points="103 15.94 95.42 12.44 98.28 18.29 95.21 18 96.11 21.86 93.03 20.71 90.89 11.49 101.14 9.11 100.69 10.34 103.5 10.56 101.22 12.6 103 15.94"/><path class="cls-6" d="M88.94,12l2.87,12.34-3.31.77L86.62,18C86.57,17,88,12.56,88.94,12Z"/><polygon class="cls-10" points="83.93 27.34 82.03 26.64 79.36 27.26 76.95 30.05 83.93 27.34"/><path class="cls-11" d="M75.35,30.32l-1.13-2.85-1.58-1.12L71,27,69,28.34l-.93,0,1.4-14.93c.23-2-.39-2.42-3.36-3.14L34.24,2.56C31.88,2,30,3.42,28.94,5.79l-4.2,9.83L17.57,13.9a4.39,4.39,0,0,0-5.3,3.24l-3.14,13a4.38,4.38,0,0,0,3.23,5.29l2.66.64a9.52,9.52,0,1,1,18.5,4.48L49.8,44.46c1.24-5.1,3.34-8.3,8.44-7.08,4.35,1.07,9.51,4.83,9.52,9.11a9.76,9.76,0,0,1-.27,2.26l1,2.73,1.16-.79,1.12,1.84,1.4-2.65,1,.71L76,49.09ZM30.2,17l-3.3-.8L31,6.65c.41-.92,1.14-2,2.23-2Zm2,.48L35.15,5,48.66,8.29l-3,12.4Zm15.45,3.73,3-12.39,13.63,3.3-3,12.39ZM67.1,15.44l-.57,10.3-3.33-.81,3-12.33C66.8,12.91,67.21,13.58,67.1,15.44Z"/><polygon class="cls-10" points="64.24 12.07 62.2 20.5 61.1 18.62 57.63 20.13 59.83 14.92 55.11 15 57.03 12.08 52.25 10.92 53.18 9.39 64.24 12.07"/><path class="cls-6" d="M67.12,15.43l-.59,10.3-3.33-.8,3-12.33C66.8,12.91,67.22,13.58,67.12,15.43Z"/><path class="cls-10" d="M88.94,12l1.68,7.24-3.84-2.33C87.16,15.26,88.19,12.45,88.94,12Z"/><polygon class="cls-10" points="70.11 28.7 72.72 27.78 73.72 28.7 74.27 30.05 70.11 28.7"/><path class="cls-12" d="M14.79,32.6a.72.72,0,0,1-.9.51l-7.24-2a.73.73,0,0,1-.51-.9l1-3.82a.73.73,0,0,1,.9-.51l7.24,2a.73.73,0,0,1,.51.9Z"/><path class="cls-12" d="M148.94,30.53a.74.74,0,0,1-.55.88l-7.3,1.73a.73.73,0,0,1-.88-.55l-.91-3.85a.74.74,0,0,1,.54-.88l7.31-1.73a.74.74,0,0,1,.88.55Z"/><polygon class="cls-13" points="75.22 19.88 70.11 7.93 72.84 6 75.22 19.88"/><polygon class="cls-13" points="77.72 4.09 76.56 16.77 75.08 2.27 76.83 0 77.61 1.35 77.72 4.09"/><polygon class="cls-13" points="84.77 8.48 76.64 24.19 80.82 4.8 84.77 8.48"/><path class="cls-10" d="M67.12,15.43,66.92,19l-2.77,2,2-8.41C66.8,12.91,67.22,13.58,67.12,15.43Z"/></g></g></g></svg>