<svg xmlns="http://www.w3.org/2000/svg" viewBox="0 0 101.66 101.66"><defs><style>.cls-1{isolation:isolate;}.cls-2{mix-blend-mode:multiply;opacity:0.4;}.cls-3{fill:#5dc90a;}.cls-4{fill:#fff;}</style></defs><g class="cls-1"><g id="Layer_2" data-name="Layer 2"><g id="Layer_1-2" data-name="Layer 1"><g class="cls-2"><circle class="cls-3" cx="53.14" cy="48.52" r="47.52" transform="translate(-18.74 51.79) rotate(-45)"/></g><circle class="cls-3" cx="53.14" cy="48.52" r="47.52" transform="translate(-18.74 51.79) rotate(-45)"/><path class="cls-4" d="M53.14,97a48.52,48.52,0,1,1,48.52-48.51A48.57,48.57,0,0,1,53.14,97Zm0-95A46.52,46.52,0,1,0,99.66,48.52,46.57,46.57,0,0,0,53.14,2Z"/><path d="M48.27,101.66A48.49,48.49,0,0,1,1.06,63.52a.75.75,0,0,1,1.47-.32A46.82,46.82,0,0,0,62.76,97.87a.75.75,0,0,1,.94.48.74.74,0,0,1-.48.94A48.1,48.1,0,0,1,48.27,101.66ZM80.08,89.43a.77.77,0,0,1-.56-.24.76.76,0,0,1,.06-1.06A46.86,46.86,0,0,0,95,53.39V53.2a.76.76,0,0,1,.75-.76h0a.75.75,0,0,1,.75.75v.2a48.34,48.34,0,0,1-16,35.85A.73.73,0,0,1,80.08,89.43ZM.75,54.19a.71.71,0,0,1-.75-.7v-.1A48.35,48.35,0,0,1,15.88,17.61a.73.73,0,0,1,1,.05.75.75,0,0,1-.05,1.06A46.87,46.87,0,0,0,1.5,53.39.8.8,0,0,1,.75,54.19Zm94-10.12a.76.76,0,0,1-.73-.59A46.82,46.82,0,0,0,33.68,8.94a.75.75,0,0,1-.47-1.42A48.31,48.31,0,0,1,95.45,43.16a.76.76,0,0,1-.58.9Z"/><polygon class="cls-4" points="43.22 74.19 22.98 53.95 30.26 46.67 43.22 59.63 75.96 26.89 83.24 34.17 43.22 74.19"/><path class="cls-4" d="M43.22,75.92l-22-22,9-9,13,13L76,25.16l9,9ZM24.7,54,43.22,72.47l38.29-38.3L76,28.62,43.22,61.35l-13-13Z"/></g></g></g></svg>